<svg xmlns="http://www.w3.org/2000/svg" xmlns:xlink="http://www.w3.org/1999/xlink" width="100%" height="100%" version="1.1" viewBox="0 0 3750 4160" xml:space="preserve" style="fill-rule:evenodd;clip-rule:evenodd;stroke-linejoin:round;stroke-miterlimit:1.41421"><g id="MARK"><g id="cesar-alsina-imagine-AVENIR"><text x="7.977" y="79.871" transform="matrix(5.25849,0,0,5.25849,0,3274.1)" style="font-family:'Avenir-Heavy','Avenir',sans-serif;font-weight:900;font-size:105.649px">c<tspan x="71.049 143.841 202.899 271.783 325.03 368.452 437.335 476.954 536.011 575.63 648.422" y="79.871 79.871 79.871 79.871 79.871 79.871 79.871 79.871 79.871 79.871 79.871">ésar alsina</tspan></text><text x="171.924" y="154.155" transform="matrix(5.25849,0,0,5.25849,0,3274.1)" style="font-family:'Avenir-Light','Avenir',sans-serif;font-weight:300;font-size:59.428px">i<tspan x="212.335 289.116 346.107 408.565 448.976 508.166" y="154.155 154.155 154.155 154.155 154.155 154.155">magine</tspan></text></g><g><path d="M1464.81,980.424l444.877,41.986l227.227,545.425l-462.304,-2.344l-209.8,-585.067Z" style="fill-opacity:.25"/><path d="M1576.81,868.443l444.877,41.987l227.227,545.407l-462.305,-2.344l-209.799,-585.05Z" style="fill:#ee3123"/><path d="M468.75,111.362l1688.89,329.548l1013.34,2026.67l-2026.67,337.767l-675.553,-2693.99Zm331.071,286.925l1285.78,213.917l738.766,1551.38l-1467.84,148.409l-556.708,-1913.7Z" style="fill-opacity:.269318"/><path d="M579.023,0l1688.89,329.548l1013.34,2026.66l-2026.67,337.785l-675.553,-2693.99Zm331.072,286.925l1285.78,213.917l738.767,1551.38l-1467.84,148.409l-556.707,-1913.7Z"/></g></g></svg>