<svg xmlns="http://www.w3.org/2000/svg" xmlns:xlink="http://www.w3.org/1999/xlink" width="100%" height="100%" version="1.1" viewBox="0 0 2813 2806" xml:space="preserve" style="fill-rule:evenodd;clip-rule:evenodd;stroke-linejoin:round;stroke-miterlimit:1.41421"><g><path d="M996.06,980.424l444.877,41.986l227.227,545.425l-462.304,-2.344l-209.8,-585.067Z" style="fill-opacity:.25"/><path d="M1108.06,868.443l444.877,41.987l227.227,545.407l-462.305,-2.344l-209.799,-585.05Z" style="fill:#ee3123"/><path d="M0,111.362l1688.89,329.548l1013.34,2026.67l-2026.67,337.767l-675.553,-2693.99Zm331.071,286.925l1285.78,213.917l738.766,1551.38l-1467.84,148.409l-556.708,-1913.7Z" style="fill-opacity:.269318"/><path d="M110.273,0l1688.89,329.548l1013.34,2026.66l-2026.67,337.785l-675.553,-2693.99Zm331.072,286.925l1285.78,213.917l738.767,1551.38l-1467.84,148.409l-556.707,-1913.7Z"/></g></svg>