<?xml version="1.0" encoding="UTF-8" standalone="no"?><!DOCTYPE svg PUBLIC "-//W3C//DTD SVG 1.1//EN" "http://www.w3.org/Graphics/SVG/1.1/DTD/svg11.dtd"><svg width="100%" height="100%" viewBox="0 0 3750 4160" version="1.1" xmlns="http://www.w3.org/2000/svg" xmlns:xlink="http://www.w3.org/1999/xlink" xml:space="preserve" style="fill-rule:evenodd;clip-rule:evenodd;stroke-linejoin:round;stroke-miterlimit:1.41421;"><g id="MARK"><g id="cesar-alsina-imagine-AVENIR" transform="matrix(5.25849,0,0,5.25849,0,3274.1)"><text x="7.977px" y="79.871px" style="font-family:'Avenir-Heavy', 'Avenir', sans-serif;font-weight:900;font-size:105.649px;">c<tspan x="71.049px 143.841px 202.899px 271.783px 325.03px 368.452px 437.335px 476.954px 536.011px 575.63px 648.422px " y="79.871px 79.871px 79.871px 79.871px 79.871px 79.871px 79.871px 79.871px 79.871px 79.871px 79.871px ">ésar alsina</tspan></text><text x="171.924px" y="154.155px" style="font-family:'Avenir-Light', 'Avenir', sans-serif;font-weight:300;font-size:59.428px;">i<tspan x="212.335px 289.116px 346.107px 408.565px 448.976px 508.166px " y="154.155px 154.155px 154.155px 154.155px 154.155px 154.155px ">magine</tspan></text></g><g><path d="M1464.81,980.424l444.877,41.986l227.227,545.425l-462.304,-2.344l-209.8,-585.067Z" style="fill-opacity:0.25;"/><path d="M1576.81,868.443l444.877,41.987l227.227,545.407l-462.305,-2.344l-209.799,-585.05Z" style="fill:#ee3123;"/><path d="M468.75,111.362l1688.89,329.548l1013.34,2026.67l-2026.67,337.767l-675.553,-2693.99Zm331.071,286.925l1285.78,213.917l738.766,1551.38l-1467.84,148.409l-556.708,-1913.7Z" style="fill-opacity:0.269318;"/><path d="M579.023,0l1688.89,329.548l1013.34,2026.66l-2026.67,337.785l-675.553,-2693.99Zm331.072,286.925l1285.78,213.917l738.767,1551.38l-1467.84,148.409l-556.707,-1913.7Z"/></g></g></svg>